<svg width="40" height="40" viewBox="0 0 40 40" fill="none" xmlns="http://www.w3.org/2000/svg">
  <path d="M24 0H8C5.79 0 4 1.79 4 4V36C4 38.21 5.79 40 8 40H32C34.21 40 36 38.21 36 36V12L24 0Z" fill="#E2E5E7"/>
  <path d="M30 14H24C21.79 14 20 12.21 20 10V4L30 14Z" fill="#B0B7BD"/>
  <path d="M24 10L36 22V12L24 0V10Z" fill="#CAD1D8"/>
  <path d="M32 36H8C6.9 36 6 35.1 6 34V30H34V34C34 35.1 33.1 36 32 36Z" fill="#F15642"/>
  <path d="M14.15 25.5C13.67 25.5 13.25 25.42 12.9 25.26C12.54 25.1 12.26 24.88 12.05 24.6C11.84 24.31 11.68 23.98 11.58 23.61C11.49 23.24 11.44 22.84 11.44 22.43C11.44 22 11.49 21.6 11.58 21.23C11.68 20.85 11.84 20.53 12.05 20.25C12.27 19.98 12.54 19.76 12.9 19.6C13.25 19.44 13.67 19.36 14.15 19.36C14.5 19.36 14.82 19.4 15.12 19.48C15.41 19.56 15.66 19.67 15.87 19.81C16.08 19.96 16.25 20.12 16.38 20.29C16.52 20.47 16.61 20.65 16.66 20.84L15.43 21.26C15.37 21.03 15.24 20.86 15.06 20.73C14.88 20.6 14.64 20.53 14.34 20.53C14.1 20.53 13.89 20.58 13.73 20.66C13.56 20.74 13.42 20.86 13.31 21.02C13.2 21.17 13.12 21.37 13.07 21.6C13.02 21.83 13 22.1 13 22.41C13 22.7 13.02 22.97 13.07 23.21C13.12 23.44 13.2 23.64 13.31 23.8C13.42 23.96 13.56 24.08 13.73 24.16C13.89 24.25 14.1 24.29 14.34 24.29C14.48 24.29 14.62 24.27 14.73 24.24C14.85 24.2 14.95 24.15 15.03 24.08C15.12 24.01 15.18 23.92 15.24 23.81C15.29 23.7 15.31 23.57 15.31 23.42V23.13H14.31V22.05H16.8V25.31H15.81L15.7 24.78C15.52 24.99 15.3 25.16 15.04 25.27C14.78 25.43 14.49 25.5 14.15 25.5Z" fill="white"/>
  <path d="M20.96 25.36H19.45V19.5H20.96V21.71H22.68V19.5H24.2V25.36H22.68V22.88H20.96V25.36Z" fill="white"/>
  <path d="M27.16 25.36H25.65V19.5H29.17V20.67H27.16V21.85H29.01V23.02H27.16V25.36Z" fill="white"/>
</svg>